# xmcd
#
# Track frame offsets:
# 150
# 10368
# 24802
# 40936
# 52229
# 66531
# 86085
# 99533
# 113178
# 125651
# 143479
#
# Disc length: 2141 seconds
#
#
# Revision: 0
# Processed by: cddbd v1.5.1PL0 Copyright (c) Steve Scherf et al.
# Submitted via: FreeRIP 2.941 
#
DISCID=98085b0b
DTITLE=Splinter Middleton - Dreams Come True
DYEAR=2003
DGENRE=Country
TTITLE0=Tin Can
TTITLE1=Why Can't Two People Fall In Love
TTITLE2=Dreams Come True
TTITLE3=Buckle Shines
TTITLE4=Not Today
TTITLE5=Tipped Up The Glass
TTITLE6=Here Comes The Loneliness
TTITLE7=Maytag Repairman
TTITLE8=If We Could Get Back Together
TTITLE9=Words From A Fool
TTITLE10=My Pretend Land
EXTD=
EXTT0=
EXTT1=
EXTT2=
EXTT3=
EXTT4=
EXTT5=
EXTT6=
EXTT7=
EXTT8=
EXTT9=
EXTT10=
PLAYORDER=
